<svg xmlns="http://www.w3.org/2000/svg" xmlns:xlink="http://www.w3.org/1999/xlink" width="980" height="816" version="1.1" viewBox="0 0 980 816"><title>5. 故障注入02</title><defs><rect id="path-1" width="900" height="580" x="40" y="196"/><mask id="mask-2" width="900" height="580" x="0" y="0" fill="#fff" maskContentUnits="userSpaceOnUse" maskUnits="objectBoundingBox"><use xlink:href="#path-1"/></mask><rect id="path-3" width="860" height="530" x="60" y="226"/><mask id="mask-4" width="860" height="530" x="0" y="0" fill="#fff" maskContentUnits="userSpaceOnUse" maskUnits="objectBoundingBox"><use xlink:href="#path-3"/></mask></defs><g id="5.-故障注入02" fill="none" fill-rule="evenodd" stroke="none" stroke-width="1"><rect id="矩形备份-3" width="130" height="96" x="80" y="504" fill="#EAEBEC" fill-rule="nonzero"/><text id="user" fill="#444" font-family="PingFangSC-Regular, PingFang SC" font-size="14" font-weight="normal" line-spacing="14"><tspan x="90" y="529">user</tspan></text><g id="编组-6" transform="translate(90.000000, 538.000000)"><g id="内容方块-单行备份"><rect id="矩形" width="108" height="50" x="2" y="2" fill="#BBB" opacity=".6"/><rect id="矩形备份" width="107" height="49" x=".5" y=".5" fill="#FFF" fill-rule="nonzero" stroke="#E5E5E5"/><text id="user" fill="#444" font-family="PingFangSC-Regular, PingFang SC" font-size="14" font-weight="normal" line-spacing="14"><tspan x="40" y="33">user</tspan></text></g><g id="编组备份-2" transform="translate(2.000000, 2.000000)"><rect id="矩形" width="16" height="16" x="0" y="0"/><path id="多边形" stroke="#00A4FF" stroke-width="2" d="M8.00077876,3.16619039 L4.00216675,5.56610022 L4.00216675,10.4338998 L8.00077876,12.8338096 L12.0021667,10.4337195 L12.0021667,5.5662805 L8.00077876,3.16619039 Z"/></g></g><rect id="矩形备份-5" width="130" height="96" x="500" y="504" fill="#EAEBEC" fill-rule="nonzero"/><text id="cart" fill="#444" font-family="PingFangSC-Regular, PingFang SC" font-size="14" font-weight="normal" line-spacing="14"><tspan x="510" y="529">cart</tspan></text><g id="编组-4" transform="translate(510.000000, 538.000000)"><g id="内容方块-单行备份-3"><rect id="矩形" width="108" height="50" x="2" y="2" fill="#BBB" opacity=".6"/><rect id="矩形备份" width="107" height="49" x=".5" y=".5" fill="#FFF" fill-rule="nonzero" stroke="#E5E5E5"/><text id="cart" fill="#444" font-family="PingFangSC-Regular, PingFang SC" font-size="14" font-weight="normal" line-spacing="14"><tspan x="41" y="33">cart</tspan></text></g><g id="编组备份-3" transform="translate(2.000000, 2.000000)"><rect id="矩形" width="16" height="16" x="0" y="0"/><path id="多边形" stroke="#00A4FF" stroke-width="2" d="M8.00077876,3.16619039 L4.00216675,5.56610022 L4.00216675,10.4338998 L8.00077876,12.8338096 L12.0021667,10.4337195 L12.0021667,5.5662805 L8.00077876,3.16619039 Z"/></g></g><rect id="矩形备份-4" width="250" height="96" x="230" y="504" fill="#EAEBEC" fill-rule="nonzero"/><text id="product" fill="#444" font-family="PingFangSC-Regular, PingFang SC" font-size="14" font-weight="normal" line-spacing="14"><tspan x="240" y="529">product</tspan></text><g id="编组-5" transform="translate(240.000000, 538.000000)"><g id="内容方块-两行备份-2"><rect id="矩形" width="108" height="50" x="2" y="2" fill="#BBB" opacity=".6"/><rect id="矩形备份" width="107" height="49" x=".5" y=".5" fill="#FFF" fill-rule="nonzero" stroke="#E5E5E5"/><text id="大文本" fill="#444" font-family="PingFangSC-Regular, PingFang SC" font-size="14" font-weight="normal" line-spacing="14"><tspan x="20" y="23">product v1</tspan></text><text id="小文本" fill="#888" font-family="PingFangSC-Regular, PingFang SC" font-size="12" font-weight="normal" line-spacing="12"><tspan x="12" y="43">(无广告banner)</tspan></text></g><g id="编组备份" transform="translate(2.000000, 2.000000)"><rect id="矩形" width="16" height="16" x="0" y="0"/><path id="多边形" stroke="#00A4FF" stroke-width="2" d="M8.00077876,3.16619039 L4.00216675,5.56610022 L4.00216675,10.4338998 L8.00077876,12.8338096 L12.0021667,10.4337195 L12.0021667,5.5662805 L8.00077876,3.16619039 Z"/></g></g><g id="编组-5备份" transform="translate(360.000000, 538.000000)"><g id="内容方块-两行备份-2"><rect id="矩形" width="108" height="50" x="2" y="2" fill="#BBB" opacity=".6"/><rect id="矩形备份" width="107" height="49" x=".5" y=".5" fill="#FFF" fill-rule="nonzero" stroke="#E5E5E5"/><text id="大文本" fill="#444" font-family="PingFangSC-Regular, PingFang SC" font-size="14" font-weight="normal" line-spacing="14"><tspan x="19" y="23">product v2</tspan></text><text id="小文本" fill="#888" font-family="PingFangSC-Regular, PingFang SC" font-size="12" font-weight="normal" line-spacing="12"><tspan x="12" y="43">(有广告banner)</tspan></text></g><g id="编组备份" transform="translate(2.000000, 2.000000)"><rect id="矩形" width="16" height="16" x="0" y="0"/><path id="多边形" stroke="#00A4FF" stroke-width="2" d="M8.00077876,3.16619039 L4.00216675,5.56610022 L4.00216675,10.4338998 L8.00077876,12.8338096 L12.0021667,10.4337195 L12.0021667,5.5662805 L8.00077876,3.16619039 Z"/></g></g><rect id="矩形备份-6" width="250" height="96" x="650" y="504" fill="#EAEBEC" fill-rule="nonzero"/><text id="order" fill="#444" font-family="PingFangSC-Regular, PingFang SC" font-size="14" font-weight="normal" line-spacing="14"><tspan x="660" y="529">order</tspan></text><g id="编组-3" transform="translate(660.000000, 538.000000)"><g id="内容方块-两行备份-4"><rect id="矩形" width="108" height="50" x="2" y="2" fill="#BBB" opacity=".6"/><rect id="矩形备份" width="107" height="49" x=".5" y=".5" fill="#FFF" fill-rule="nonzero" stroke="#E5E5E5"/><text id="大文本" fill="#444" font-family="PingFangSC-Regular, PingFang SC" font-size="14" font-weight="normal" line-spacing="14"><tspan x="28" y="23">order v1</tspan></text><text id="小文本" fill="#888" font-family="PingFangSC-Regular, PingFang SC" font-size="12" font-weight="normal" line-spacing="12"><tspan x="8" y="43">(无积分抵扣系统)</tspan></text></g><g id="编组备份-4" transform="translate(2.000000, 2.000000)"><rect id="矩形" width="16" height="16" x="0" y="0"/><path id="多边形" stroke="#00A4FF" stroke-width="2" d="M8.00077876,3.16619039 L4.00216675,5.56610022 L4.00216675,10.4338998 L8.00077876,12.8338096 L12.0021667,10.4337195 L12.0021667,5.5662805 L8.00077876,3.16619039 Z"/></g></g><g id="编组-3备份" transform="translate(780.000000, 538.000000)"><g id="内容方块-两行备份-4"><rect id="矩形" width="108" height="50" x="2" y="2" fill="#BBB" opacity=".6"/><rect id="矩形备份" width="107" height="49" x=".5" y=".5" fill="#FFF" fill-rule="nonzero" stroke="#E5E5E5"/><text id="大文本" fill="#444" font-family="PingFangSC-Regular, PingFang SC" font-size="14" font-weight="normal" line-spacing="14"><tspan x="26.5" y="23">order v2</tspan></text><text id="小文本" fill="#888" font-family="PingFangSC-Regular, PingFang SC" font-size="12" font-weight="normal" line-spacing="12"><tspan x="8" y="43">(有积分抵扣系统)</tspan></text></g><g id="编组备份-4" transform="translate(2.000000, 2.000000)"><rect id="矩形" width="16" height="16" x="0" y="0"/><path id="多边形" stroke="#00A4FF" stroke-width="2" d="M8.00077876,3.16619039 L4.00216675,5.56610022 L4.00216675,10.4338998 L8.00077876,12.8338096 L12.0021667,10.4337195 L12.0021667,5.5662805 L8.00077876,3.16619039 Z"/></g></g><polygon id="路径备份-4" fill="#888" points="150 504 145 498 140 504" transform="translate(145.000000, 501.000000) rotate(-180.000000) translate(-145.000000, -501.000000)"/><polygon id="路径" fill="#E4514A" points="570 504 565 498 560 504" transform="translate(565.000000, 501.000000) rotate(-180.000000) translate(-565.000000, -501.000000)"/><polygon id="路径备份-5" fill="#FFA600" points="720 538 715 532 710 538" transform="translate(715.000000, 535.000000) rotate(-180.000000) translate(-715.000000, -535.000000)"/><g id="编组-11" fill="#FFA600" transform="translate(608.500000, 453.500000) rotate(-270.000000) translate(-608.500000, -453.500000) translate(606.000000, 420.000000)"><polygon id="路径备份-12" points="5 67 0 61 0 67" transform="translate(2.500000, 64.000000) rotate(-180.000000) translate(-2.500000, -64.000000)"/><rect id="矩形" width="1" height="61" x="4" y="0"/></g><polygon id="路径备份-9" fill="#FFA600" points="840 538 835 532 830 538" transform="translate(835.000000, 535.000000) rotate(-180.000000) translate(-835.000000, -535.000000)"/><polygon id="路径" fill="#888" points="300 538 295 532 290 538" transform="translate(295.000000, 535.000000) rotate(-180.000000) translate(-295.000000, -535.000000)"/><polygon id="路径备份" fill="#888" points="420 538 415 532 410 538" transform="translate(415.000000, 535.000000) rotate(-180.000000) translate(-415.000000, -535.000000)"/><rect id="矩形备份-5" width="130" height="96" x="605" y="640" fill="#EAEBEC" fill-rule="nonzero"/><text id="stock" fill="#444" font-family="PingFangSC-Regular, PingFang SC" font-size="14" font-weight="normal" line-spacing="14"><tspan x="615" y="665">stock</tspan></text><g id="编组-7" transform="translate(615.000000, 674.000000)"><g id="内容方块-单行备份-3"><rect id="矩形" width="108" height="50" x="2" y="2" fill="#BBB" opacity=".6"/><rect id="矩形备份" width="107" height="49" x=".5" y=".5" fill="#FFF" fill-rule="nonzero" stroke="#E5E5E5"/><text id="stock" fill="#444" font-family="PingFangSC-Regular, PingFang SC" font-size="14" font-weight="normal" line-spacing="14"><tspan x="36" y="33">stock</tspan></text></g><g id="编组备份-5" transform="translate(2.000000, 2.000000)"><rect id="矩形" width="16" height="16" x="0" y="0"/><path id="多边形" stroke="#00A4FF" stroke-width="2" d="M8.00077876,3.16619039 L4.00216675,5.56610022 L4.00216675,10.4338998 L8.00077876,12.8338096 L12.0021667,10.4337195 L12.0021667,5.5662805 L8.00077876,3.16619039 Z"/></g></g><rect id="矩形备份-7" width="160" height="96" x="290" y="348" fill="#EAEBEC" fill-rule="nonzero"/><text id="frontend" fill="#444" font-family="PingFangSC-Regular, PingFang SC" font-size="14" font-weight="normal" line-spacing="14"><tspan x="300" y="373">frontend</tspan></text><g id="编组-8" transform="translate(300.000000, 382.000000)"><g id="内容方块-单行备份-4"><rect id="矩形" width="138" height="50" x="2" y="2" fill="#BBB" opacity=".6"/><rect id="矩形备份" width="137" height="49" x=".5" y=".5" fill="#FFF" fill-rule="nonzero" stroke="#E5E5E5"/><text id="frontend" fill="#444" font-family="PingFangSC-Regular, PingFang SC" font-size="14" font-weight="normal" line-spacing="14"><tspan x="41" y="33">frontend</tspan></text></g><g id="编组备份-6" transform="translate(2.000000, 2.000000)"><rect id="矩形" width="16" height="16" x="0" y="0"/><path id="多边形" stroke="#00A4FF" stroke-width="2" d="M8.00077876,3.16619039 L4.00216675,5.56610022 L4.00216675,10.4338998 L8.00077876,12.8338096 L12.0021667,10.4337195 L12.0021667,5.5662805 L8.00077876,3.16619039 Z"/></g></g><polyline id="路径备份-2" stroke="#888" points="145 502 145 482 340 482 340 444" transform="translate(242.500000, 473.000000) rotate(-180.000000) translate(-242.500000, -473.000000)"/><polyline id="路径备份-10" stroke="#FFA600" points="715 532 835 532 835 464" transform="translate(775.000000, 498.000000) scale(-1, 1) rotate(-180.000000) translate(-775.000000, -498.000000)"/><polyline id="路径备份-8" stroke="#FFA600" points="400 532 400 512 715 512 715 444" transform="translate(557.500000, 488.000000) scale(-1, 1) rotate(-180.000000) translate(-557.500000, -488.000000)"/><text id="小文本" fill="#888" font-family="PingFangSC-Regular, PingFang SC" font-size="10" font-weight="normal" line-spacing="12"><tspan x="605" y="496">http header vip = faise</tspan></text><text id="小文本备份-7" fill="#FFA600" font-family="PingFangSC-Regular, PingFang SC" font-size="10" font-weight="normal" line-spacing="12"><tspan x="661" y="482">timeout 3s</tspan></text><text id="小文本备份-5" fill="#FFA600" font-family="PingFangSC-Regular, PingFang SC" font-size="10" font-weight="normal" line-spacing="12"><tspan x="583" y="451">504 timeout</tspan></text><text id="小文本备份-2" fill="#888" font-family="PingFangSC-Regular, PingFang SC" font-size="10" font-weight="normal" line-spacing="12"><tspan x="299" y="500">0%</tspan></text><text id="小文本备份-3" fill="#888" font-family="PingFangSC-Regular, PingFang SC" font-size="10" font-weight="normal" line-spacing="12"><tspan x="385" y="500">100%</tspan></text><text id="小文本备份" fill="#888" font-family="PingFangSC-Regular, PingFang SC" font-size="10" font-weight="normal" line-spacing="12"><tspan x="729" y="496">http header vip = true</tspan></text><text id="小文本备份-8" fill="#FFA600" font-family="PingFangSC-Regular, PingFang SC" font-size="10" font-weight="normal" line-spacing="12"><tspan x="781" y="482">timeout 3s</tspan></text><polyline id="路径备份-7" stroke="#E4514A" points="380 502 380 472 565 472 565 444" transform="translate(472.500000, 473.000000) scale(-1, 1) rotate(-180.000000) translate(-472.500000, -473.000000)"/><line id="路径备份-6" x1="360" x2="360" y1="484" y2="444" stroke="#888" transform="translate(360.000000, 464.000000) rotate(-180.000000) translate(-360.000000, -464.000000)"/><polyline id="路径备份-6" stroke="#888" points="295 532 360 532 360 484" transform="translate(327.500000, 508.000000) rotate(-180.000000) translate(-327.500000, -508.000000)"/><polyline id="路径备份-11" stroke="#888" points="360 532 415 532 415 484" transform="translate(387.500000, 508.000000) scale(-1, 1) rotate(180.000000) translate(-387.500000, -508.000000)"/><g id="编组-9" transform="translate(565.000000, 600.000000)"><polyline id="路径备份-3" stroke="#E4514A" points="0 0 0 20 210 20 210 0" transform="translate(105.000000, 10.000000) scale(1, -1) rotate(180.000000) translate(-105.000000, -10.000000)"/><g id="编组-3备份-7" transform="translate(105.000000, 30.000000) rotate(-180.000000) translate(-105.000000, -30.000000) translate(100.000000, 20.000000)"><line id="路径" x1="5" x2="5" y1="20" y2="2" stroke="#E4514A"/><polygon id="路径" fill="#E4514A" points="10 6 5 0 0 6"/></g></g><rect id="矩形备份-4" width="160" height="244" x="290" y="80" fill="#EAEBEC" fill-rule="nonzero"/><text id="istio-ingressgateway" fill="#444" font-family="PingFangSC-Regular, PingFang SC" font-size="14" font-weight="normal" line-spacing="14"><tspan x="300" y="105">istio-ingressgateway</tspan></text><g id="内容方块-两行备份-3" transform="translate(300.000000, 256.000000)"><rect id="矩形" width="138" height="50" x="2" y="2" fill="#BBB" opacity=".6"/><rect id="矩形备份" width="137" height="49" x=".5" y=".5" fill="#FFF" fill-rule="nonzero" stroke="#E5E5E5"/><g id="编组备份-6" transform="translate(53.000000, 9.000000)"><rect id="矩形" width="32" height="32" x="0" y="0"/><path id="多边形" stroke="#00A4FF" stroke-width="2" d="M16.0013983,5.16619039 L7.0043335,10.5661002 L7.0043335,21.4338998 L16.0013983,26.8338096 L25.0043335,21.4337195 L25.0043335,10.5662805 L16.0013983,5.16619039 Z"/></g></g><g id="编组" transform="translate(300.000000, 114.000000)"><rect id="矩形" width="138" height="50" x="2" y="2" fill="#BBB" opacity=".6"/><rect id="矩形备份" width="137" height="49" x=".5" y=".5" fill="#FFF" fill-rule="nonzero" stroke="#E5E5E5"/><g id="编组-2" transform="translate(37.000000, 10.000000)"><text id="CLB" fill="#444" font-family="PingFangSC-Regular, PingFang SC" font-size="14" font-weight="normal" line-spacing="14"><tspan x="36" y="23">CLB</tspan></text><g id="图标-负载均衡-CLB"><g id="负载均衡-32px"><rect id="Rectangle-Copy" width="32" height="32" x="0" y="0" fill="#444" fill-rule="nonzero" opacity="0"/><path id="形状结合" fill="#00A4FF" fill-rule="nonzero" d="M16,0 C23.811235,0 30.3151005,5.59751424 31.7192447,13.000191 L29.677892,13.0003278 C28.3046747,6.70979962 22.7023537,2 16,2 C8.2680135,2 2,8.2680135 2,16 C2,23.7319865 8.2680135,30 16,30 C23.052652,30 28.8872801,24.7850199 29.8581018,18.0008423 L31.8761139,18.0007904 C30.8915668,25.8930309 24.1589629,32 16,32 C7.163444,32 1.95399252e-14,24.836556 1.95399252e-14,16 C1.95399252e-14,7.163444 7.163444,0 16,0 Z M20,19 C21.1045695,19 22,19.8954305 22,21 C22,22.1045695 21.1045695,23 20,23 C18.8954305,23 18,22.1045695 18,21 C18,19.8954305 18.8954305,19 20,19 Z M16,10 L16,12 L12,12 L12,15 L16,15 L16,17 L12,17 L12,20 L16,20 L16,22 L10,22 L10,10 L16,10 Z M20,14 C21.1045695,14 22,14.8954305 22,16 C22,17.1045695 21.1045695,18 20,18 C18.8954305,18 18,17.1045695 18,16 C18,14.8954305 18.8954305,14 20,14 Z M20,9 C21.1045695,9 22,9.8954305 22,11 C22,12.1045695 21.1045695,13 20,13 C18.8954305,13 18,12.1045695 18,11 C18,9.8954305 18.8954305,9 20,9 Z"/></g></g></g></g><g id="编组-3备份-4" transform="translate(370.000000, 211.000000) rotate(-180.000000) translate(-370.000000, -211.000000) translate(365.000000, 166.000000)"><line id="路径" x1="5" x2="5" y1="90" y2="3" stroke="#888"/><polygon id="路径" fill="#888" points="10 6 5 0 0 6"/></g><g id="编组-3备份-9" transform="translate(370.000000, 328.000000) rotate(-180.000000) translate(-370.000000, -328.000000) translate(365.000000, 308.000000)"><line id="路径" x1="5" x2="5" y1="40" y2="2" stroke="#888"/><polygon id="路径" fill="#888" points="10 6 5 0 0 6"/></g><g id="编组-3备份-10" transform="translate(370.000000, 60.000000) rotate(-180.000000) translate(-370.000000, -60.000000) translate(365.000000, 40.000000)"><line id="路径" x1="5" x2="5" y1="40" y2="2" stroke="#888"/><polygon id="路径" fill="#888" points="10 6 5 0 0 6"/></g><use id="矩形备份-8" stroke="#00A4FF" stroke-dasharray="6 4" stroke-width="2" mask="url(#mask-2)" xlink:href="#path-1"/><use id="矩形备份-8" stroke="#00A4FF" stroke-dasharray="6 4" stroke-width="2" mask="url(#mask-4)" xlink:href="#path-3"/><text id="TKE集群1" fill="#00A4FF" font-family="PingFangSC-Regular, PingFang SC" font-size="12" font-weight="normal" line-spacing="12"><tspan x="90" y="251">TKE集群1</tspan></text><text id="VPC广州" fill="#00A4FF" font-family="PingFangSC-Regular, PingFang SC" font-size="12" font-weight="normal" line-spacing="12"><tspan x="70" y="219">VPC广州</tspan></text><g id="私有网络-16px" fill-rule="nonzero" transform="translate(50.000000, 204.000000)"><rect id="Rectangle-Copy" width="16" height="16" x="0" y="0" fill="#444" opacity="0"/><path id="形状结合" fill="#00A4FF" d="M8,0 C11.2337955,0 13.8773626,2.5700718 13.9958544,5.77536834 L14,6 L15,6 L15,15 L1,15 L1,6 L2,6 C2,2.691 4.691,0 8,0 Z M13,8 L3,8 L3,13 L13,13 L13,8 Z M9,9 L9,12 L7,12 L7,9 L9,9 Z M8,2 C5.86084848,2 4.1091056,3.68692011 4.00490369,5.80062799 L4,6 L12,6 C12,3.794 10.206,2 8,2 Z"/></g><g id="容器服务-16px" fill-rule="nonzero" transform="translate(70.000000, 236.000000)"><rect id="Rectangle-Copy" width="16" height="16" x="0" y="0" fill="#444" opacity="0"/><path id="Fill-1" fill="#00A4FF" d="M9,0.5715 L9,7.0005 L15,7.0005 L15,4.0005 L9,0.5715 Z M10.7,3.5005 L13.299,4.9855 L13.299,5.3005 L10.7,5.3005 L10.7,3.5005 Z M7,0.5715 L1,4.0005 L1,7.0005 L7,7.0005 L7,0.5715 Z M2.7,4.9855 L5.3,3.5005 L5.3,5.3005 L2.7,5.3005 L2.7,4.9855 Z M9,8.9995 L9,15.4285 L15,11.9995 L15,8.9995 L9,8.9995 Z M10.7,10.7005 L13.299,10.7005 L13.299,11.0145 L10.7,12.4995 L10.7,10.7005 Z M1,8.9995 L1,11.9995 L7,15.4285 L7,8.9995 L1,8.9995 Z M2.7,11.0145 L2.7,10.7005 L5.3,10.7005 L5.3,12.4995 L2.7,11.0145 Z"/></g><text id="小文本备份-4" fill="#E4514A" font-family="PingFangSC-Regular, PingFang SC" font-size="10" font-weight="normal" line-spacing="12"><tspan x="680" y="635">fixed delay 7s</tspan></text><text id="小文本备份-6" fill="#E4514A" font-family="PingFangSC-Regular, PingFang SC" font-size="10" font-weight="normal" line-spacing="12"><tspan x="486" y="496">pending until 7s</tspan></text><g id="编组-2" transform="translate(40.000000, 40.000000)"><g id="编组-3备份-11" transform="translate(8.000000, 33.000000) rotate(-270.000000) translate(-8.000000, -33.000000) translate(3.000000, 25.000000)"><line id="路径" x1="5" x2="5" y1="16" y2="2" stroke="#888"/><polygon id="路径" fill="#888" points="10 6 5 0 0 6"/></g><g id="编组备份-2"><rect id="矩形" width="16" height="16" x="0" y="0"/><path id="多边形" stroke="#00A4FF" stroke-width="2" d="M8.00077876,3.16619039 L4.00216675,5.56610022 L4.00216675,10.4338998 L8.00077876,12.8338096 L12.0021667,10.4337195 L12.0021667,5.5662805 L8.00077876,3.16619039 Z"/></g><text id="proxy" fill="#888" font-family="PingFangSC-Regular, PingFang SC" font-size="14" font-weight="normal" line-spacing="14"><tspan x="20" y="16">proxy</tspan></text><text id="traffic-flow" fill="#888" font-family="PingFangSC-Regular, PingFang SC" font-size="14" font-weight="normal" line-spacing="14"><tspan x="20" y="41">traffic flow</tspan></text></g></g></svg>